<svg xmlns="http://www.w3.org/2000/svg" viewBox="0 0 512 512">
  <defs>
    <radialGradient id="bg" cx="50%" cy="30%" r="80%"><stop offset="0" stop-color="#1f6b3d"/><stop offset="1" stop-color="#0b2416"/></radialGradient>
    <radialGradient id="ball" cx="38%" cy="32%" r="75%"><stop offset="0" stop-color="#ffffff"/><stop offset="1" stop-color="#cfd6d2"/></radialGradient>
  </defs>
  <rect width="512" height="512" fill="url(#bg)"/>
  <g stroke="#ffffff" stroke-opacity=".18" stroke-width="8" fill="none">
    <line x1="0" y1="256" x2="512" y2="256"/>
    <circle cx="256" cy="256" r="150"/>
  </g>
  <circle cx="256" cy="256" r="120" fill="url(#ball)"/>
  <polygon points="256,206 303,240 285,295 227,295 209,240" fill="#16201a"/>
  <g stroke="#16201a" stroke-width="10" stroke-linecap="round">
    <line x1="256" y1="206" x2="256" y2="140"/>
    <line x1="303" y1="240" x2="366" y2="219"/>
    <line x1="285" y1="295" x2="324" y2="350"/>
    <line x1="227" y1="295" x2="188" y2="350"/>
    <line x1="209" y1="240" x2="146" y2="219"/>
  </g>
  <path d="M226 140 L286 140 L300 158 L256 170 L212 158 Z" fill="#16201a"/>
  <path d="M366 219 L376 262 L362 290 L346 250 Z" fill="#16201a"/>
  <path d="M146 219 L136 262 L150 290 L166 250 Z" fill="#16201a"/>
  <path d="M324 350 L296 372 L262 374 L300 340 Z" fill="#16201a"/>
  <path d="M188 350 L216 372 L250 374 L212 340 Z" fill="#16201a"/>
</svg>
